<svg width="30" height="29" viewBox="0 0 30 29" fill="none" xmlns="http://www.w3.org/2000/svg">
<g id="Layer_1" clip-path="url(#clip0_663_3634)">
<path id="Vector" d="M13.1764 0.912166C12.6744 1.16198 12.248 1.54098 11.9411 2.0102C11.1697 3.00294 10.5669 4.11585 10.1568 5.30432L5.21561 18.2749C5.00973 18.8239 4.87247 19.3043 4.73521 19.7847C4.59796 20.2651 4.52933 20.7455 4.39207 21.1573C4.25482 21.569 4.32345 21.5004 4.32345 21.7063C4.24741 22.1372 4.20155 22.5729 4.1862 23.0102C4.20102 24.3763 4.65855 25.7008 5.49012 26.7847C6.29157 27.6341 7.35486 28.1899 8.50972 28.3631H5.55875C4.42324 28.1908 3.38142 27.6336 2.60777 26.7847C1.70252 25.7418 1.23533 24.3895 1.30384 23.0102C1.30828 22.4098 1.37731 21.8116 1.50972 21.2259C1.56795 20.7397 1.65968 20.2582 1.78424 19.7847L2.196 18.5494C2.196 18.4122 2.26463 18.3435 2.26463 18.2749H2.33325L3.22541 15.8729L4.25482 13.1965L5.35286 10.1769L5.97051 8.59844L7.13717 5.5102V5.30432C7.54724 4.11585 8.15006 3.00294 8.92149 2.0102C9.38408 1.37381 10.0308 0.89472 10.7744 0.637655C11.1672 0.486129 11.5909 0.431953 12.0091 0.479757C12.4274 0.527561 12.8279 0.675924 13.1764 0.912166Z" fill="#FFFEFD"/>
<path id="Vector_2" d="M6.45098 5.64702C5.98848 5.67691 5.52933 5.74578 5.07843 5.8529C4.38663 6.02435 3.73427 6.32724 3.15687 6.74506C2.78117 6.99245 2.47202 7.32836 2.25661 7.72327C2.04121 8.11817 1.92616 8.55996 1.92157 9.00976C1.89078 9.79896 2.13317 10.5746 2.60784 11.2058C3.0515 11.9498 3.60702 12.6211 4.2549 13.196L5.35294 10.1764L5.00981 9.69604C4.52941 8.87251 4.94118 8.87251 5.83333 8.66663C5.83333 8.598 5.90196 8.598 5.97059 8.598L7.13725 5.50977L6.45098 5.64702ZM1.64705 14.0196C1.32417 13.5471 1.11297 13.0073 1.02941 12.4411C0.710209 12.6967 0.452125 13.0203 0.274024 13.3884C0.0959231 13.7565 0.00230516 14.1597 0 14.5686C0.00343746 15.3529 0.24254 16.118 0.686274 16.7647C1.10483 17.4468 1.61258 18.0699 2.19608 18.6176C2.19608 18.4804 2.26471 18.4117 2.26471 18.3431H2.33333L3.22549 15.9411C2.59674 15.3923 2.06336 14.7429 1.64705 14.0196Z" fill="#FFFEFD"/>
<path id="Vector_3" d="M14.4804 18.0002L13.5883 18.6179L12.6275 19.2355L12.2157 19.4414H11.9412L11.0491 18.6865L12.0785 15.9414L13.1765 16.7649L14.4118 17.7257L14.4804 18.0002Z" fill="#FFFEFD"/>
<path id="Vector_4" d="M28.4118 16.6959C28.0185 17.3164 27.5583 17.8917 27.0392 18.4116L24.6373 20.4704L22.098 22.5979L18.4608 25.5488H18.3922L17.1569 26.441C16.7782 26.7621 16.3637 27.0385 15.9216 27.2645L14.2745 28.0194C13.2539 28.3353 12.1775 28.4289 11.1177 28.2939L10.4314 28.0881C9.66914 27.8272 8.98475 27.3788 8.44119 26.7841C7.06864 25.2743 7.00001 23.0783 7.34314 21.2253C7.42495 20.7377 7.53959 20.2563 7.68628 19.7841C7.82354 19.3038 7.96079 18.8234 8.16667 18.2743L13.1079 5.30375C13.4902 4.1033 14.0956 2.98573 14.8922 2.00963C15.3409 1.35967 15.9926 0.876945 16.7451 0.637084C17.1689 0.486931 17.6236 0.445945 18.0674 0.517911C18.5112 0.589876 18.9297 0.772473 19.2843 1.04885C19.8635 1.4755 20.3531 2.0118 20.7255 2.62728C20.9941 2.99131 21.2241 3.3823 21.4118 3.79395L22.0294 5.23512V5.37238L23.1961 8.46061L23.7451 9.90179L23.402 10.3136C22.8369 11.0028 22.2172 11.6454 21.549 12.2351L19.2843 6.19591C19.143 5.78874 18.959 5.39767 18.7353 5.02924C18.6319 4.70462 18.469 4.40208 18.2549 4.13708C17.7745 3.38218 17.6373 2.97042 17.0196 3.72532C16.6162 4.2465 16.2924 4.8247 16.0588 5.44101H15.9902L15.8529 5.64689V5.78414H15.7843C15.7706 5.93007 15.7236 6.07092 15.6471 6.19591C15.5784 6.19591 15.5784 6.26454 15.5784 6.33316H15.5098V6.47042C15.5098 6.53904 15.4412 6.60767 15.4412 6.6763H15.3726V7.08807H15.3039V7.36258H15.2353C15.2353 7.4312 15.1667 7.4312 15.1667 7.49983V7.77434C15.1418 7.80219 15.123 7.83481 15.1112 7.87021C15.0994 7.90561 15.0949 7.94304 15.098 7.98022H15.0294V8.11748L12.4902 14.843L11.4608 17.5881L11.2549 18.0685L11.049 18.7547L10.8431 19.3724C10.7475 19.7328 10.6787 20.0998 10.6373 20.4704H10.5686C10.5686 20.7449 10.5 21.0194 10.5 21.2253V21.7743C10.4524 22.4381 10.6475 23.0966 11.049 23.6273C11.3911 23.989 11.8564 24.2094 12.3529 24.2449H12.4902C12.4902 24.1763 12.5588 24.1763 12.6275 24.1763L13.7255 23.9704L14.9608 23.4214L15.3726 23.1469L16.6078 22.392L17.9118 21.4312L25.3235 15.2547C26.3471 14.4997 27.2298 13.5705 27.9314 12.5096C28.1954 12.0322 28.4027 11.5254 28.549 10.9998C28.8454 11.2705 29.0835 11.5987 29.2487 11.9645C29.4139 12.3303 29.5028 12.726 29.5098 13.1273C29.6742 13.7655 29.6585 14.4368 29.4647 15.0667C29.2709 15.6965 28.9065 16.2605 28.4118 16.6959Z" fill="#FFFEFD"/>
<path id="Vector_5" d="M26.5588 11.1377C25.8206 12.1688 24.9429 13.0926 23.951 13.8828L16.5392 20.0592C16.1263 20.3872 15.6906 20.6853 15.2353 20.9514L14 21.7749L12.353 22.5298C11.7547 22.7315 11.1308 22.847 10.5 22.873H10.0883V22.5298C10.0883 22.3239 10.1569 22.0494 10.1569 21.7749H10.2255C10.2669 21.4043 10.3357 21.0373 10.4314 20.6769L10.6373 20.0592L11.3922 19.8533L11.9412 19.6475H12.2157L12.6275 19.4416L13.5883 18.8239L14.4804 18.2063L14.7549 18.0004L17.0883 16.0788L19.4216 14.3631C20.1869 13.7861 20.9201 13.1675 21.6177 12.5102C22.2859 11.9204 22.9055 11.2778 23.4706 10.5886L23.8137 10.1769L24.0883 9.83373C24.5686 9.01021 24.1569 8.94158 23.3334 8.7357H23.2647L22.0981 5.64746H22.6471L24.0196 5.92197C24.7275 6.07356 25.4018 6.35261 26.0098 6.7455C26.3754 7.01894 26.6758 7.37004 26.8894 7.7735C27.103 8.17697 27.2245 8.62278 27.2451 9.07883C27.1764 9.80847 26.9416 10.5127 26.5588 11.1377Z" fill="#FFFEFD"/>
<path id="Vector_6" fill-rule="evenodd" clip-rule="evenodd" d="M19.4216 14.1568L17.0883 15.8725L15.3726 11.2745L14.6177 9.35288V9.21563H14.6863C14.6831 9.17845 14.6876 9.14102 14.6994 9.10562C14.7112 9.07022 14.7301 9.0376 14.7549 9.00975V8.73524C14.7549 8.66661 14.8236 8.66661 14.8236 8.59798V7.77446V7.6372C14.8236 7.56857 14.8922 7.49995 14.8922 7.43132V7.29406H14.9608C14.9608 7.22543 14.9608 7.15681 15.0294 7.15681V7.01955C15.106 6.89457 15.1529 6.75371 15.1667 6.60779H15.2353V6.47053L15.3726 6.26465H15.4412C15.5098 6.53916 15.6471 6.81367 15.7157 7.01955L16.1961 8.18622L19.4216 14.1568Z" fill="#FFFEFD"/>
<path id="Vector_7" fill-rule="evenodd" clip-rule="evenodd" d="M27.8628 24.177C27.791 25.0234 27.4827 25.8326 26.9731 26.5122C26.4634 27.1917 25.7729 27.7143 24.9804 28.0201L23.8138 28.3633L22.5785 28.5005H11.1177C12.1775 28.6355 13.2539 28.5419 14.2745 28.226L15.9216 27.4711C16.3637 27.2451 16.7782 26.9687 17.1569 26.6476L18.3922 25.7554H23.2647L23.8824 25.5495C24.206 25.404 24.4849 25.1745 24.69 24.8849C24.8951 24.5953 25.0191 24.2561 25.049 23.9025C25.1276 23.3081 25.1044 22.7047 24.9804 22.1182C24.8986 21.6306 24.784 21.1491 24.6373 20.677L27.0392 18.6182L27.451 19.9907C27.8602 21.3459 28.0001 22.7681 27.8628 24.177Z" fill="#FFFEFD"/>
<path id="Vector_8" fill-rule="evenodd" clip-rule="evenodd" d="M22.0293 24.1077C21.9607 24.245 21.9607 24.3822 21.8921 24.4509C21.8052 24.6597 21.6745 24.8475 21.5087 25.0014C21.3429 25.1553 21.146 25.2718 20.9313 25.343H20.794L20.3823 25.4803H18.4607L22.0979 22.5293C22.1125 23.0564 22.0896 23.5839 22.0293 24.1077Z" fill="#FFFEFD"/>
<path id="Vector_9" fill-rule="evenodd" clip-rule="evenodd" d="M22.0979 22.5977L18.4607 25.5486L22.0979 22.5977Z" fill="#FFFEFD"/>
</g>
<defs>
<clipPath id="clip0_663_3634">
<rect width="29.098" height="28" fill="white" transform="translate(0 0.5)"/>
</clipPath>
</defs>
</svg>
